<svg width="21" height="23" viewBox="0 0 21 23" fill="none" xmlns="http://www.w3.org/2000/svg">
<path d="M20.0218 12.1763C20.0858 14.1558 19.5615 16.1097 18.515 17.7912C17.4685 19.4726 15.9469 20.806 14.1427 21.6226C12.3384 22.4393 10.3325 22.7026 8.37856 22.3792C6.42465 22.0559 4.61051 21.1604 3.16555 19.806C1.72058 18.4516 0.709691 16.6991 0.260711 14.7702C-0.18827 12.8413 -0.055176 10.8225 0.643162 8.96923C1.3415 7.11595 2.57372 5.51137 4.18399 4.3584C5.79426 3.20543 7.71027 2.55585 9.68972 2.49181L9.79277 5.67693C8.44328 5.72059 7.13704 6.16344 6.03923 6.94948C4.94142 7.73552 4.10136 8.82944 3.62527 10.0929C3.14918 11.3564 3.05844 12.7327 3.36453 14.0477C3.67062 15.3628 4.3598 16.5575 5.34491 17.4809C6.33001 18.4042 7.5668 19.0147 8.89888 19.2352C10.231 19.4557 11.5985 19.2761 12.8286 18.7194C14.0586 18.1626 15.096 17.2536 15.8094 16.1073C16.5228 14.961 16.8803 13.6288 16.8367 12.2793L20.0218 12.1763Z" fill="white"/>
<path d="M12.3242 11.7297H20.0269V13.2703C20.0269 14.1211 19.3372 14.8108 18.4864 14.8108H12.3242V11.7297Z" fill="white"/>
<path d="M11.4796 9.94604V9.35521L13.6985 6.92624C13.9589 6.64176 14.1733 6.39449 14.3418 6.18441C14.5103 5.97215 14.635 5.77302 14.716 5.58702C14.7992 5.39882 14.8407 5.20188 14.8407 4.99618C14.8407 4.75985 14.7838 4.55525 14.6701 4.38237C14.5585 4.2095 14.4053 4.07602 14.2105 3.98192C14.0158 3.88783 13.7969 3.84078 13.554 3.84078C13.2958 3.84078 13.0704 3.89439 12.8779 4.00162C12.6875 4.10665 12.5398 4.25436 12.4347 4.44474C12.3319 4.63512 12.2805 4.85832 12.2805 5.11435H11.5058C11.5058 4.72046 11.5966 4.37471 11.7783 4.07711C11.9599 3.77951 12.2072 3.54755 12.5201 3.38124C12.8352 3.21493 13.1886 3.13178 13.5803 3.13178C13.9742 3.13178 14.3232 3.21493 14.6274 3.38124C14.9316 3.54755 15.1701 3.77185 15.3429 4.05413C15.5158 4.33642 15.6023 4.65044 15.6023 4.99618C15.6023 5.24346 15.5574 5.48526 15.4677 5.72159C15.3801 5.95574 15.227 6.21724 15.0081 6.50609C14.7915 6.79275 14.4906 7.14287 14.1055 7.55646L12.5956 9.1714V9.22392H15.7204V9.94604H11.4796Z" fill="white"/>
</svg>
