<svg width="21" height="16" viewBox="0 0 21 16" fill="none" xmlns="http://www.w3.org/2000/svg">
<path d="M11.0137 6.97416L6.87715 1.3605C6.27359 0.541438 5.11073 0.565425 4.53679 1.40878L0.603296 7.18891C0.212137 7.76372 0.226132 8.5488 0.637491 9.10705L4.7741 14.7207C5.37768 15.5398 6.54054 15.5158 7.11447 14.6724L11.0479 8.89231C11.4392 8.31749 11.4252 7.53242 11.0137 6.97416Z" fill="white"/>
<path d="M9.45055 1.40771C9.24642 1.13069 9.23954 0.741077 9.4338 0.455916C9.71847 0.0378899 10.295 0.0259971 10.5944 0.431974L15.052 6.4765C15.4638 7.03491 15.4778 7.82062 15.0862 8.39559L10.8474 14.6195C10.5626 15.0376 9.98608 15.0495 9.68672 14.6434C9.66116 14.6088 9.63873 14.5724 9.61937 14.5347C9.48383 14.2707 9.49973 13.9412 9.66953 13.6917L13.9103 7.45995L9.45055 1.40771Z" fill="white"/>
<path d="M14.6793 1.40771C14.4752 1.13069 14.4683 0.741077 14.6626 0.455916C14.9472 0.0378899 15.5238 0.0259971 15.8232 0.431974L20.2808 6.4765C20.6926 7.03491 20.7066 7.82062 20.315 8.39559L16.0761 14.6195C15.7914 15.0376 15.2148 15.0495 14.9155 14.6434C14.8899 14.6088 14.8675 14.5724 14.8481 14.5347C14.7126 14.2707 14.7285 13.9412 14.8983 13.6917L19.1391 7.45995L14.6793 1.40771Z" fill="white"/>
</svg>
